<?xml version="1.0" encoding="iso-8859-1"?>
<!-- Generator: Adobe Illustrator 19.0.0, SVG Export Plug-In . SVG Version: 6.00 Build 0)  -->
<svg version="1.1" id="Capa_1" xmlns="http://www.w3.org/2000/svg" xmlns:xlink="http://www.w3.org/1999/xlink" x="0px" y="0px"
	 viewBox="0 0 512 512" style="enable-background:new 0 0 512 512;" xml:space="preserve">
<g>
	<path style="fill:#6B7B8B;" d="M435.52,224H76.48c-4.131,0-7.48,3.582-7.48,8v208c0,4.418,3.349,8,7.48,8h359.04
		c4.131,0,7.48-3.582,7.48-8V232C443,227.582,439.651,224,435.52,224z"/>
	<g>
		<path style="fill:#D5D9DE;" d="M448,232h-40c-4.418,0-8,3.582-8,8v200c0,4.418,3.582,8,8,8h40c4.418,0,8-3.582,8-8V240
			C456,235.582,452.419,232,448,232z"/>
		<path style="fill:#D5D9DE;" d="M104,232H64c-4.418,0-8,3.582-8,8v200c0,4.418,3.582,8,8,8h40c4.418,0,8-3.582,8-8V240
			C112,235.582,108.419,232,104,232z"/>
		<path style="fill:#D5D9DE;" d="M184,232h-40c-4.418,0-8,3.582-8,8v200c0,4.418,3.582,8,8,8h40c4.418,0,8-3.582,8-8V240
			C192,235.582,188.419,232,184,232z"/>
		<path style="fill:#D5D9DE;" d="M368,232h-40c-4.418,0-8,3.582-8,8v200c0,4.418,3.582,8,8,8h40c4.418,0,8-3.582,8-8V240
			C376,235.582,372.419,232,368,232z"/>
	</g>
	<g>
		<path style="fill:#BFC7CD;" d="M456,232c0-4.418-3.582-8-8-8h-40c-4.418,0-8,3.582-8,8v24.5h56V232z"/>
		<path style="fill:#BFC7CD;" d="M112,232c0-4.418-3.582-8-8-8H64c-4.418,0-8,3.582-8,8v24.5h56V232z"/>
		<path style="fill:#BFC7CD;" d="M192,232c0-4.418-3.582-8-8-8h-40c-4.418,0-8,3.582-8,8v24.5h56V232z"/>
		<path style="fill:#BFC7CD;" d="M376,232c0-4.418-3.582-8-8-8h-40c-4.418,0-8,3.582-8,8v24.5h56V232z"/>
	</g>
	<path style="fill:#F4F6F7;" d="M453.535,186.224l-192-184c-3.094-2.966-7.977-2.966-11.07,0l-192,184
		c-2.358,2.26-3.106,5.728-1.888,8.759C57.795,198.014,60.734,200,64,200h384c3.267,0,6.205-1.986,7.423-5.017
		C456.641,191.952,455.894,188.485,453.535,186.224z"/>
	<path style="fill:#EAECEE;" d="M480,184H32c-4.418,0-8,3.582-8,8v40c0,4.418,3.582,8,8,8h448c4.418,0,8-3.582,8-8v-40
		C488,187.582,484.419,184,480,184z"/>
	<path style="fill:#D5D9DE;" d="M48,224c-4.418,0-8-3.582-8-8v-32h-8c-4.418,0-8,3.582-8,8v40c0,4.418,3.582,8,8,8h448
		c4.418,0,8-3.582,8-8v-8H48z"/>
	<path style="fill:#EAECEE;" d="M472,432H40c-4.418,0-8,3.582-8,8v64c0,4.418,3.582,8,8,8h432c4.418,0,8-3.582,8-8v-64
		C480,435.582,476.419,432,472,432z"/>
	<path style="fill:#D5D9DE;" d="M496,472H16c-4.418,0-8,3.582-8,8v24c0,4.418,3.582,8,8,8h480c4.418,0,8-3.582,8-8v-24
		C504,475.582,500.419,472,496,472z"/>
	<path style="fill:#FFFFFF;" d="M276.8,324.4c4.418,0,8-3.582,8-8v-5.2c0-12.065-9.103-22.039-20.8-23.428V280c0-4.418-3.582-8-8-8
		s-8,3.582-8,8v8.163c-11.864,2.496-20.8,13.041-20.8,25.637c0,14.447,11.753,26.2,26.2,26.2h5.2c5.624,0,10.2,4.576,10.2,10.2
		c0,5.624-4.576,10.2-10.2,10.2h-7.8c-4.19,0-7.6-3.409-7.6-7.6c0-4.418-3.582-8-8-8s-8,3.582-8,8
		c0,12.065,9.103,22.039,20.8,23.428V384c0,4.418,3.582,8,8,8s8-3.582,8-8v-8.163c11.864-2.496,20.8-13.041,20.8-25.637
		c0-14.447-11.753-26.2-26.2-26.2h-5.2c-5.624,0-10.2-4.576-10.2-10.2c0-5.624,4.576-10.2,10.2-10.2h7.8c4.19,0,7.6,3.409,7.6,7.6
		v5.2C268.8,320.819,272.381,324.4,276.8,324.4z"/>
	<g>
		<circle style="fill:#49DFE5;" cx="256" cy="104" r="40"/>
	</g>
</g>
<g>
</g>
<g>
</g>
<g>
</g>
<g>
</g>
<g>
</g>
<g>
</g>
<g>
</g>
<g>
</g>
<g>
</g>
<g>
</g>
<g>
</g>
<g>
</g>
<g>
</g>
<g>
</g>
<g>
</g>
</svg>
