<?xml version="1.0" encoding="iso-8859-1"?>
<!-- Generator: Adobe Illustrator 19.0.0, SVG Export Plug-In . SVG Version: 6.00 Build 0)  -->
<svg version="1.1" id="Capa_1" xmlns="http://www.w3.org/2000/svg" xmlns:xlink="http://www.w3.org/1999/xlink" x="0px" y="0px"
	 viewBox="0 0 512 512" style="enable-background:new 0 0 512 512;" xml:space="preserve">
<g>
	<g>
		<g>
			<path style="fill:#5C546A;" d="M299,432H45c-0.552,0-1-0.448-1-1V81c0-0.552,0.448-1,1-1h254c0.552,0,1,0.448,1,1v350
				C300,431.552,299.552,432,299,432z"/>
		</g>
	</g>
	<g>
		<g>
			<rect x="116" y="24" style="fill:#5C546A;" width="88" height="32"/>
		</g>
	</g>
	<g>
		<g>
			<rect x="140" y="440" style="fill:#5C546A;" width="64" height="64"/>
		</g>
	</g>
	<g>
		<g>
			<path style="fill:#8A8895;" d="M276,0H68C45.945,0,28,17.945,28,40v432c0,22.055,17.945,40,40,40h208c22.055,0,40-17.945,40-40
				V40C316,17.945,298.055,0,276,0z M156,32h32c4.422,0,8,3.578,8,8s-3.578,8-8,8h-32c-4.422,0-8-3.578-8-8S151.578,32,156,32z
				 M126.32,34.32c2.875-2.883,8.398-2.961,11.359,0c1.438,1.516,2.32,3.516,2.32,5.68c0,2.156-0.883,4.156-2.32,5.68
				C136.156,47.117,134.156,48,132,48c-2.164,0-4.164-0.883-5.68-2.32C124.875,44.156,124,42.156,124,40
				C124,37.836,124.875,35.836,126.32,34.32z M172,496c-13.23,0-24-10.77-24-24s10.77-24,24-24s24,10.77,24,24S185.23,496,172,496z
				 M292,432H52c-4.418,0-8-3.582-8-8V88c0-4.418,3.582-8,8-8h240c4.418,0,8,3.582,8,8v336C300,428.418,296.418,432,292,432z"/>
		</g>
	</g>
	<g>
		<path style="fill:#5D647F;" d="M452,408H100c-17.673,0-32-14.327-32-32V136c0-17.673,14.327-32,32-32h352
			c17.673,0,32,14.327,32,32v240C484,393.673,469.673,408,452,408z"/>
	</g>
	<g>
		<path style="fill:#FFD100;" d="M212,232h-80c-8.837,0-16-7.163-16-16v-48c0-8.837,7.163-16,16-16h80c8.837,0,16,7.163,16,16v48
			C228,224.837,220.837,232,212,232z"/>
	</g>
	<g>
		<path style="fill:#B8BAC0;" d="M156,320h-24c-8.837,0-16-7.163-16-16v0c0-8.837,7.163-16,16-16h24c8.837,0,16,7.163,16,16v0
			C172,312.837,164.837,320,156,320z"/>
	</g>
	<g>
		<path style="fill:#B8BAC0;" d="M244,320h-24c-8.837,0-16-7.163-16-16v0c0-8.837,7.163-16,16-16h24c8.837,0,16,7.163,16,16v0
			C260,312.837,252.837,320,244,320z"/>
	</g>
	<g>
		<path style="fill:#B8BAC0;" d="M332,320h-24c-8.837,0-16-7.163-16-16v0c0-8.837,7.163-16,16-16h24c8.837,0,16,7.163,16,16v0
			C348,312.837,340.837,320,332,320z"/>
	</g>
	<g>
		<path style="fill:#B8BAC0;" d="M420,320h-24c-8.837,0-16-7.163-16-16v0c0-8.837,7.163-16,16-16h24c8.837,0,16,7.163,16,16v0
			C436,312.837,428.837,320,420,320z"/>
	</g>
	<g>
		<g>
			<path style="fill:#8A8895;" d="M252.8,368H123.2c-3.98,0-7.2-3.582-7.2-8s3.22-8,7.2-8h129.6c3.98,0,7.2,3.582,7.2,8
				S256.78,368,252.8,368z"/>
		</g>
	</g>
	<g>
		<g>
			<path style="fill:#8A8895;" d="M340,368h-56c-4.422,0-8-3.582-8-8s3.578-8,8-8h56c4.422,0,8,3.582,8,8S344.422,368,340,368z"/>
		</g>
	</g>
	<g>
		<path style="fill:#FF4F19;" d="M372,216.005C364.702,225.718,353.085,232,340.001,232c-22.091,0-40-17.909-40-40s17.909-40,40-40
			c13.074,0,24.682,6.272,31.981,15.971"/>
	</g>
	<g>
		<circle style="fill:#FFD100;" cx="396" cy="192" r="40"/>
	</g>
	<g>
		<polygon style="fill:#FF9500;" points="156,184 156,152 140,152 140,232 156,232 156,200 228,200 228,184 		"/>
	</g>
</g>
<g>
</g>
<g>
</g>
<g>
</g>
<g>
</g>
<g>
</g>
<g>
</g>
<g>
</g>
<g>
</g>
<g>
</g>
<g>
</g>
<g>
</g>
<g>
</g>
<g>
</g>
<g>
</g>
<g>
</g>
</svg>
