<?xml version="1.0" encoding="iso-8859-1"?>
<!-- Generator: Adobe Illustrator 19.0.0, SVG Export Plug-In . SVG Version: 6.00 Build 0)  -->
<svg xmlns="http://www.w3.org/2000/svg" xmlns:xlink="http://www.w3.org/1999/xlink" version="1.1" id="Layer_1" x="0px" y="0px" viewBox="0 0 512 512" style="enable-background:new 0 0 512 512;" xml:space="preserve">
<path style="fill:#FFE365;" d="M256,512C114.509,512,0,397.503,0,256C0,114.509,114.497,0,256,0c141.49,0,256,114.497,256,256  C512,397.49,397.503,512,256,512z"/>
<path style="fill:#FFC733;" d="M256,0v512c141.503,0,256-114.51,256-256C512,114.497,397.49,0,256,0z"/>
<path style="fill:#1C3D66;" d="M308.776,285.021h-72.856c-9.425,0-17.067-7.641-17.067-17.067V155.832  c0-9.425,7.641-17.067,17.067-17.067c9.425,0,17.067,7.641,17.067,17.067v95.056h55.79c9.425,0,17.067,7.641,17.067,17.067  C325.842,277.38,318.201,285.021,308.776,285.021z"/>
<path style="fill:#163457;" d="M308.776,250.888H256v34.133h52.776c9.425,0,17.067-7.641,17.067-17.067  C325.842,258.529,318.201,250.888,308.776,250.888z"/>
<g>
</g>
<g>
</g>
<g>
</g>
<g>
</g>
<g>
</g>
<g>
</g>
<g>
</g>
<g>
</g>
<g>
</g>
<g>
</g>
<g>
</g>
<g>
</g>
<g>
</g>
<g>
</g>
<g>
</g>
</svg>
